<svg width="59" height="20" viewBox="0 0 59 20" fill="none" xmlns="http://www.w3.org/2000/svg">
<circle cx="9" cy="9.3277" r="7.5" stroke="white" stroke-width="3"/>
<circle cx="15" cy="14.3277" r="3" fill="white"/>
<path d="M25.948 7.7757V14.3277H24.58L24.34 13.4877H24.244C24.108 13.7117 23.932 13.8957 23.716 14.0397C23.508 14.1757 23.276 14.2757 23.02 14.3397C22.764 14.4117 22.5 14.4477 22.228 14.4477C21.764 14.4477 21.356 14.3637 21.004 14.1957C20.652 14.0277 20.38 13.7677 20.188 13.4157C19.996 13.0637 19.9 12.6077 19.9 12.0477V7.7757H21.688V11.6037C21.688 12.0677 21.772 12.4197 21.94 12.6597C22.108 12.8997 22.376 13.0197 22.744 13.0197C23.112 13.0197 23.396 12.9357 23.596 12.7677C23.804 12.5997 23.948 12.3557 24.028 12.0357C24.116 11.7157 24.16 11.3237 24.16 10.8597V7.7757H25.948ZM29.6107 7.7757V14.3277H27.8227V7.7757H29.6107ZM28.7227 5.2077C28.9867 5.2077 29.2147 5.2717 29.4067 5.3997C29.5987 5.5197 29.6947 5.7477 29.6947 6.0837C29.6947 6.4117 29.5987 6.6397 29.4067 6.7677C29.2147 6.8957 28.9867 6.9597 28.7227 6.9597C28.4507 6.9597 28.2187 6.8957 28.0267 6.7677C27.8427 6.6397 27.7507 6.4117 27.7507 6.0837C27.7507 5.7477 27.8427 5.5197 28.0267 5.3997C28.2187 5.2717 28.4507 5.2077 28.7227 5.2077ZM36.675 11.9517C36.675 12.4557 36.551 12.8957 36.303 13.2717C36.055 13.6477 35.695 13.9397 35.223 14.1477C34.759 14.3477 34.191 14.4477 33.519 14.4477C33.223 14.4477 32.931 14.4277 32.643 14.3877C32.363 14.3477 32.091 14.2917 31.827 14.2197C31.571 14.1397 31.327 14.0437 31.095 13.9317V12.2397C31.503 12.4157 31.923 12.5797 32.355 12.7317C32.795 12.8757 33.231 12.9477 33.663 12.9477C33.959 12.9477 34.195 12.9077 34.371 12.8277C34.555 12.7477 34.687 12.6397 34.767 12.5037C34.855 12.3677 34.899 12.2117 34.899 12.0357C34.899 11.8197 34.823 11.6357 34.671 11.4837C34.527 11.3317 34.331 11.1917 34.083 11.0637C33.835 10.9277 33.551 10.7837 33.231 10.6317C33.031 10.5357 32.815 10.4237 32.583 10.2957C32.351 10.1597 32.127 9.9957 31.911 9.8037C31.703 9.6037 31.531 9.3637 31.395 9.0837C31.259 8.8037 31.191 8.4677 31.191 8.0757C31.191 7.5637 31.307 7.1277 31.539 6.7677C31.779 6.3997 32.115 6.1197 32.547 5.9277C32.987 5.7357 33.503 5.6397 34.095 5.6397C34.543 5.6397 34.967 5.6917 35.367 5.7957C35.775 5.8997 36.199 6.0477 36.639 6.2397L36.051 7.6557C35.659 7.4957 35.307 7.3717 34.995 7.2837C34.683 7.1957 34.363 7.1517 34.035 7.1517C33.811 7.1517 33.619 7.1877 33.459 7.2597C33.299 7.3317 33.175 7.4317 33.087 7.5597C33.007 7.6877 32.967 7.8397 32.967 8.0157C32.967 8.2157 33.027 8.3877 33.147 8.5317C33.267 8.6677 33.447 8.7997 33.687 8.9277C33.927 9.0557 34.227 9.2077 34.587 9.3837C35.027 9.5917 35.399 9.8077 35.703 10.0317C36.015 10.2557 36.255 10.5197 36.423 10.8237C36.591 11.1277 36.675 11.5037 36.675 11.9517ZM40.7763 7.6437C41.6563 7.6437 42.3283 7.8357 42.7923 8.2197C43.2643 8.5957 43.5003 9.1757 43.5003 9.9597V14.3277H42.2523L41.9043 13.4397H41.8563C41.6723 13.6717 41.4803 13.8637 41.2803 14.0157C41.0883 14.1677 40.8643 14.2757 40.6083 14.3397C40.3603 14.4117 40.0523 14.4477 39.6843 14.4477C39.3003 14.4477 38.9523 14.3757 38.6403 14.2317C38.3363 14.0797 38.0963 13.8517 37.9203 13.5477C37.7443 13.2357 37.6563 12.8437 37.6563 12.3717C37.6563 11.6757 37.9003 11.1637 38.3883 10.8357C38.8763 10.4997 39.6083 10.3157 40.5843 10.2837L41.7243 10.2477V9.9597C41.7243 9.6157 41.6323 9.3637 41.4483 9.2037C41.2723 9.0437 41.0243 8.9637 40.7043 8.9637C40.3843 8.9637 40.0723 9.0117 39.7683 9.1077C39.4643 9.1957 39.1603 9.3077 38.8563 9.4437L38.2683 8.2317C38.6203 8.0477 39.0083 7.9037 39.4323 7.7997C39.8643 7.6957 40.3123 7.6437 40.7763 7.6437ZM41.0283 11.3157C40.4523 11.3317 40.0523 11.4357 39.8283 11.6277C39.6043 11.8197 39.4923 12.0717 39.4923 12.3837C39.4923 12.6557 39.5723 12.8517 39.7323 12.9717C39.8923 13.0837 40.1003 13.1397 40.3563 13.1397C40.7403 13.1397 41.0643 13.0277 41.3283 12.8037C41.5923 12.5717 41.7243 12.2477 41.7243 11.8317V11.2917L41.0283 11.3157ZM46.8905 14.3277L44.3945 7.7757H46.2665L47.5265 11.5077C47.5745 11.6517 47.6145 11.8037 47.6465 11.9637C47.6865 12.1237 47.7145 12.2797 47.7305 12.4317C47.7545 12.5837 47.7705 12.7237 47.7785 12.8517H47.8265C47.8345 12.7157 47.8505 12.5717 47.8745 12.4197C47.8985 12.2677 47.9265 12.1157 47.9585 11.9637C47.9985 11.8037 48.0425 11.6517 48.0905 11.5077L49.3505 7.7757H51.2225L48.7265 14.3277H46.8905ZM54.8626 7.6557C55.4706 7.6557 55.9906 7.7717 56.4226 8.0037C56.8626 8.2357 57.2026 8.5717 57.4426 9.0117C57.6826 9.4517 57.8026 9.9917 57.8026 10.6317V11.4957H53.5786C53.5946 11.9997 53.7426 12.3957 54.0226 12.6837C54.3106 12.9717 54.7066 13.1157 55.2106 13.1157C55.6346 13.1157 56.0186 13.0757 56.3626 12.9957C56.7066 12.9077 57.0626 12.7757 57.4306 12.5997V13.9797C57.1106 14.1397 56.7706 14.2557 56.4106 14.3277C56.0586 14.4077 55.6306 14.4477 55.1266 14.4477C54.4706 14.4477 53.8906 14.3277 53.3866 14.0877C52.8826 13.8397 52.4866 13.4677 52.1986 12.9717C51.9106 12.4757 51.7666 11.8517 51.7666 11.0997C51.7666 10.3317 51.8946 9.6957 52.1506 9.1917C52.4146 8.6797 52.7786 8.2957 53.2426 8.0397C53.7066 7.7837 54.2466 7.6557 54.8626 7.6557ZM54.8746 8.9277C54.5306 8.9277 54.2426 9.0397 54.0106 9.2637C53.7866 9.4877 53.6546 9.8357 53.6146 10.3077H56.1226C56.1226 10.0437 56.0746 9.8077 55.9786 9.5997C55.8906 9.3917 55.7546 9.2277 55.5706 9.1077C55.3866 8.9877 55.1546 8.9277 54.8746 8.9277Z" fill="white"/>
</svg>
