<svg width="30" height="30" viewBox="0 0 53 53" fill="none" xmlns="http://www.w3.org/2000/svg">
<path d="M39.9435 27.7915C40.2 27.172 40.2 26.3845 40.2 24.8125C40.2 23.2405 40.2 22.453 39.9435 21.8335C39.7738 21.4239 39.5252 21.0517 39.2117 20.7382C38.8982 20.4248 38.5261 20.1761 38.1165 20.0065C37.497 19.75 36.7095 19.75 35.1375 19.75H25.35C23.46 19.75 22.515 19.75 21.7935 20.1175C21.1578 20.4412 20.6411 20.9579 20.3175 21.5935C19.95 22.3135 19.95 23.2585 19.95 25.15V34.9375C19.95 36.5095 19.95 37.297 20.2065 37.9165C20.55 38.743 21.207 39.4015 22.0335 39.7435C22.653 40 23.4405 40 25.0125 40C26.5845 40 27.372 40 27.9915 39.7435M39.9435 27.7915C39.7738 28.2011 39.5252 28.5733 39.2117 28.8868C38.8982 29.2002 38.5261 29.4489 38.1165 29.6185C37.497 29.875 36.7095 29.875 35.1375 29.875C33.5655 29.875 32.778 29.875 32.1585 30.1315C31.7488 30.3011 31.3767 30.5498 31.0632 30.8632C30.7497 31.1767 30.5011 31.5489 30.3315 31.9585C30.075 32.578 30.075 33.3655 30.075 34.9375C30.075 36.5095 30.075 37.297 29.8185 37.9165C29.6488 38.3261 29.4002 38.6983 29.0867 39.0118C28.7732 39.3252 28.4011 39.5739 27.9915 39.7435M39.9435 27.7915C39.1368 30.574 37.6526 33.1129 35.6238 35.181C33.595 37.249 31.0849 38.7816 28.3185 39.6415L27.9915 39.7435M33.45 19.75V18.4C33.45 16.51 33.4499 15.565 33.0824 14.8435C32.7592 14.2081 32.243 13.6914 31.608 13.3675C30.885 13 29.94 13 28.05 13H18.6C16.71 13 15.765 13 15.0435 13.3675C14.4078 13.6912 13.8911 14.2079 13.5675 14.8435C13.2 15.5635 13.2 16.5085 13.2 18.4V27.85C13.2 29.74 13.2 30.685 13.5675 31.4065C13.8915 32.0425 14.4075 32.5585 15.0435 32.8825C15.7635 33.25 16.71 33.25 18.6015 33.25H19.95" stroke="white" stroke-width="1.8" stroke-linecap="round" stroke-linejoin="round"/>
<circle cx="26.7" cy="26.5" r="25.2" stroke="white" stroke-width="1.8"/>
</svg>
