<svg width="30" height="30" viewBox="0 0 53 53" fill="none" xmlns="http://www.w3.org/2000/svg">
<circle cx="26.5" cy="26.5" r="25.2" stroke="white" stroke-width="1.8"/>
<path d="M34.75 18.58L34.3078 25.6065M18.25 18.58L18.9155 29.407C19.0849 32.1793 19.1707 33.565 19.8769 34.5629C20.2256 35.0554 20.6755 35.4723 21.1969 35.7844C21.935 36.2272 22.8491 36.36 24.3 36.4M35.3 28.84L27.6 36.4M35.3 36.4L27.6 28.84M16.6 18.58H36.4M30.9616 18.58L30.2103 17.0593C29.712 16.0485 29.4623 15.5441 29.0322 15.2287C28.9366 15.1589 28.8355 15.0968 28.7297 15.043C28.2534 14.8 27.6814 14.8 26.5385 14.8C25.3659 14.8 24.7796 14.8 24.2945 15.0527C24.1872 15.1091 24.085 15.1741 23.9887 15.2471C23.5542 15.5743 23.3111 16.0981 22.8249 17.1447L22.1583 18.58" stroke="white" stroke-width="1.8" stroke-linecap="round" stroke-linejoin="round"/>
</svg>
