<svg width="30" height="30" viewBox="0 0 53 53" fill="none" xmlns="http://www.w3.org/2000/svg">
<circle cx="26.7" cy="26.3" r="25.2" fill="black" stroke="#D9D9D9" stroke-width="1.8"/>
<path d="M25.2755 34.4999C25.423 34.6504 25.5401 34.8292 25.6199 35.0261C25.6998 35.2231 25.7409 35.4342 25.7409 35.6474C25.7409 35.8606 25.6998 36.0717 25.6199 36.2686C25.5401 36.4655 25.423 36.6444 25.2755 36.7949L24.6003 37.4861C23.8836 38.2225 23.0313 38.8062 22.0929 39.2034C21.1544 39.6005 20.1483 39.8033 19.1329 39.7999C17.6036 39.8005 16.1085 39.3366 14.8368 38.4671C13.5651 37.5975 12.5739 36.3614 11.9886 34.9151C11.4033 33.4687 11.2502 31.8772 11.5487 30.3417C11.8472 28.8063 12.5838 27.396 13.6654 26.2893L18.248 21.598C19.2227 20.6004 20.4402 19.8875 21.7744 19.5333C23.1086 19.1791 24.5111 19.1964 25.8366 19.5834C27.1621 19.9704 28.3624 20.713 29.3134 21.7345C30.2644 22.7559 30.9314 24.0189 31.2453 25.3929C31.2973 25.6018 31.3081 25.8192 31.277 26.0324C31.2458 26.2456 31.1734 26.4503 31.064 26.6345C30.9546 26.8187 30.8104 26.9787 30.6398 27.1051C30.4693 27.2315 30.2757 27.3218 30.0706 27.3707C29.8655 27.4196 29.653 27.4261 29.4454 27.3898C29.2378 27.3535 29.0394 27.2751 28.8618 27.1593C28.6842 27.0435 28.5309 26.8926 28.411 26.7153C28.2911 26.5381 28.2069 26.3382 28.1635 26.1273C27.9772 25.3162 27.5826 24.5709 27.0207 23.9682C26.4587 23.3655 25.7497 22.9275 24.967 22.6993C24.1842 22.4711 23.3562 22.461 22.5684 22.6702C21.7806 22.8794 21.0616 23.3001 20.4859 23.889L15.9033 28.5802C15.2645 29.2336 14.8294 30.0662 14.6529 30.9728C14.4764 31.8794 14.5665 32.8192 14.9117 33.6733C15.257 34.5275 15.842 35.2577 16.5926 35.7715C17.3433 36.2853 18.2259 36.5597 19.1289 36.56C19.7289 36.5618 20.3233 36.4417 20.8776 36.2067C21.432 35.9718 21.9353 35.6266 22.3585 35.1911L23.0323 34.4999C23.1794 34.3487 23.3541 34.2287 23.5466 34.1468C23.7391 34.0649 23.9455 34.0227 24.1539 34.0227C24.3623 34.0227 24.5687 34.0649 24.7612 34.1468C24.9537 34.2287 25.1284 34.3487 25.2755 34.4999ZM39.7353 15.1181C38.2849 13.6338 36.318 12.8 34.2672 12.8C32.2164 12.8 30.2495 13.6338 28.7991 15.1181L28.1252 15.8079C27.828 16.1123 27.6609 16.525 27.6609 16.9554C27.6609 17.3858 27.828 17.7986 28.1252 18.1029C28.4225 18.4073 28.8257 18.5782 29.2462 18.5782C29.6666 18.5782 30.0698 18.4073 30.3671 18.1029L31.0423 17.4117C31.8991 16.5345 33.0613 16.0417 34.2731 16.0417C35.4849 16.0417 36.6471 16.5345 37.504 17.4117C38.3609 18.2889 38.8423 19.4787 38.8423 20.7192C38.8423 21.9598 38.3609 23.1495 37.504 24.0267L32.9135 28.7111C32.4904 29.1466 31.9871 29.4918 31.4327 29.7268C30.8783 29.9618 30.284 30.0818 29.684 30.08C28.6547 30.0793 27.6559 29.7226 26.8494 29.0679C26.043 28.4131 25.4763 27.4987 25.2412 26.4729C25.1461 26.0543 24.8924 25.6916 24.536 25.4645C24.1797 25.2374 23.7498 25.1645 23.3409 25.2619C22.9321 25.3593 22.5777 25.619 22.3559 25.9838C22.1341 26.3486 22.0629 26.7887 22.158 27.2073C22.5551 28.9445 23.5138 30.4935 24.8787 31.6031C26.2435 32.7126 27.9345 33.3176 29.6774 33.32H29.684C30.6999 33.3229 31.7064 33.1195 32.6451 32.7216C33.5837 32.3237 34.4361 31.7393 35.1527 31.0021L39.7353 26.3109C40.4533 25.576 41.0228 24.7035 41.4114 23.7433C41.8 22.7831 42 21.7539 42 20.7145C42 19.6751 41.8 18.6459 41.4114 17.6857C41.0228 16.7254 40.4533 15.853 39.7353 15.1181Z" fill="white"/>
</svg>
