<svg width="30" height="30" viewBox="0 0 53 53" fill="none" xmlns="http://www.w3.org/2000/svg">
<circle cx="26.3" cy="26.3" r="25.2" fill="black" stroke="white" stroke-width="1.8"/>
<path d="M20 14.6H16.4C15.9226 14.6 15.4647 14.7896 15.1272 15.1272C14.7896 15.4647 14.6 15.9226 14.6 16.4V36.2C14.6 36.6774 14.7896 37.1352 15.1272 37.4728C15.4647 37.8103 15.9226 38 16.4 38H34.4C34.8774 38 35.3352 37.8103 35.6728 37.4728C36.0103 37.1352 36.2 36.6774 36.2 36.2V16.4C36.2 15.9226 36.0103 15.4647 35.6728 15.1272C35.3352 14.7896 34.8774 14.6 34.4 14.6H30.8" stroke="white" stroke-width="1.8" stroke-linecap="round" stroke-linejoin="round"/>
<path d="M23.6 21.8H32.6M23.6 27.2H32.6M23.6 32.6H32.6M18.2 21.8H20M18.2 27.2H20M18.2 32.6H20M21.8 12.8H29C29.4774 12.8 29.9352 12.9896 30.2728 13.3272C30.6104 13.6648 30.8 14.1226 30.8 14.6C30.8 15.0774 30.6104 15.5352 30.2728 15.8728C29.9352 16.2103 29.4774 16.4 29 16.4H21.8C21.3226 16.4 20.8648 16.2103 20.5272 15.8728C20.1897 15.5352 20 15.0774 20 14.6C20 14.1226 20.1897 13.6648 20.5272 13.3272C20.8648 12.9896 21.3226 12.8 21.8 12.8Z" stroke="white" stroke-width="1.8" stroke-linecap="round" stroke-linejoin="round"/>
</svg>
